<mxfile host="Electron" agent="Mozilla/5.0 (X11; Linux aarch64) AppleWebKit/537.36 (KHTML, like Gecko) draw.io/28.0.4 Chrome/138.0.7204.97 Electron/37.2.1 Safari/537.36" version="28.0.4">
  <diagram name="Page-1" id="h9Fu1T1iGzOCEMohWCH5">
    <mxGraphModel dx="947" dy="631" grid="1" gridSize="10" guides="1" tooltips="1" connect="1" arrows="1" fold="1" page="1" pageScale="1" pageWidth="827" pageHeight="1169" math="0" shadow="0">
      <root>
        <mxCell id="0" />
        <mxCell id="1" parent="0" />
        <mxCell id="ELLcUYjGjxYWiDp_643C-23" value="&lt;font style=&quot;font-size: 10px;&quot;&gt;&lt;b&gt;locomotion::Arbiter&lt;/b&gt;&lt;/font&gt;" style="rounded=0;whiteSpace=wrap;html=1;fillColor=#ffe6cc;strokeColor=#d79b00;" parent="1" vertex="1">
          <mxGeometry x="330" y="360" width="120" height="80" as="geometry" />
        </mxCell>
        <mxCell id="ELLcUYjGjxYWiDp_643C-2" value="&lt;font&gt;&amp;lt;&amp;lt;ipc&amp;gt;&amp;gt;&lt;/font&gt;&lt;div&gt;&lt;font&gt;topic: /locomotion/command/alternate&lt;/font&gt;&lt;/div&gt;&lt;div&gt;&lt;font&gt;datatype: locomotion::Command&lt;/font&gt;&lt;/div&gt;" style="text;html=1;align=center;verticalAlign=middle;resizable=0;points=[];autosize=1;strokeColor=none;fillColor=none;fontSize=9;fontColor=#0000FF;" parent="1" vertex="1">
          <mxGeometry x="160" y="520" width="170" height="50" as="geometry" />
        </mxCell>
        <mxCell id="ELLcUYjGjxYWiDp_643C-4" value="&lt;font&gt;&amp;lt;&amp;lt;ipc&amp;gt;&amp;gt;&lt;/font&gt;&lt;div&gt;&lt;font&gt;topic: /locomotion/arbiter/status&lt;/font&gt;&lt;/div&gt;&lt;div&gt;&lt;font&gt;datatype: locomotion::ArbiterStatus&lt;/font&gt;&lt;/div&gt;" style="text;html=1;align=center;verticalAlign=middle;resizable=0;points=[];autosize=1;strokeColor=none;fillColor=none;fontSize=9;fontColor=#0000FF;" parent="1" vertex="1">
          <mxGeometry x="450" y="520" width="160" height="50" as="geometry" />
        </mxCell>
        <mxCell id="ELLcUYjGjxYWiDp_643C-10" value="" style="html=1;shape=mxgraph.sysml.port;sysMLPortType=flowN;rotation=90;fillColor=#ffe6cc;strokeColor=#d79b00;" parent="1" vertex="1">
          <mxGeometry x="320" y="370" width="20" height="20" as="geometry" />
        </mxCell>
        <mxCell id="ELLcUYjGjxYWiDp_643C-21" value="" style="html=1;shape=mxgraph.sysml.port;sysMLPortType=flowN;rotation=90;fillColor=#ffe6cc;strokeColor=#d79b00;" parent="1" vertex="1">
          <mxGeometry x="440" y="370" width="20" height="20" as="geometry" />
        </mxCell>
        <mxCell id="ELLcUYjGjxYWiDp_643C-22" value="" style="html=1;shape=mxgraph.sysml.port;sysMLPortType=flowN;rotation=90;fillColor=#ffe6cc;strokeColor=#d79b00;" parent="1" vertex="1">
          <mxGeometry x="320" y="410" width="20" height="20" as="geometry" />
        </mxCell>
        <mxCell id="ELLcUYjGjxYWiDp_643C-25" value="" style="html=1;shape=mxgraph.sysml.port;sysMLPortType=flowN;rotation=90;fillColor=#ffe6cc;strokeColor=#d79b00;" parent="1" vertex="1">
          <mxGeometry x="440" y="410" width="20" height="20" as="geometry" />
        </mxCell>
        <mxCell id="ELLcUYjGjxYWiDp_643C-27" value="&lt;font color=&quot;#606060&quot;&gt;&lt;span style=&quot;font-size: 10px;&quot;&gt;&lt;b&gt;Autonomous&lt;/b&gt;&lt;/span&gt;&lt;/font&gt;&lt;div&gt;&lt;font color=&quot;#606060&quot;&gt;&lt;span style=&quot;font-size: 10px;&quot;&gt;&lt;b&gt;Navigation&lt;/b&gt;&lt;/span&gt;&lt;/font&gt;&lt;/div&gt;&lt;div&gt;&lt;font color=&quot;#606060&quot;&gt;&lt;span style=&quot;font-size: 10px;&quot;&gt;&lt;b&gt;Controller&lt;/b&gt;&lt;/span&gt;&lt;/font&gt;&lt;/div&gt;" style="rounded=0;whiteSpace=wrap;html=1;strokeColor=#606060;" parent="1" vertex="1">
          <mxGeometry x="60" y="339.65" width="120" height="80" as="geometry" />
        </mxCell>
        <mxCell id="ELLcUYjGjxYWiDp_643C-29" value="" style="html=1;shape=mxgraph.sysml.port;sysMLPortType=flowN;rotation=90;strokeColor=#606060;" parent="1" vertex="1">
          <mxGeometry x="170" y="369.65" width="20" height="20" as="geometry" />
        </mxCell>
        <mxCell id="ELLcUYjGjxYWiDp_643C-38" value="&lt;font color=&quot;#606060&quot;&gt;&lt;span style=&quot;font-size: 10px;&quot;&gt;&lt;b&gt;Teleop&lt;/b&gt;&lt;/span&gt;&lt;/font&gt;&lt;div&gt;&lt;font color=&quot;#606060&quot;&gt;&lt;span style=&quot;font-size: 10px;&quot;&gt;&lt;b&gt;Controller&lt;/b&gt;&lt;/span&gt;&lt;/font&gt;&lt;/div&gt;" style="rounded=0;whiteSpace=wrap;html=1;strokeColor=#606060;" parent="1" vertex="1">
          <mxGeometry x="330" y="480.00000000000006" width="120" height="80" as="geometry" />
        </mxCell>
        <mxCell id="ELLcUYjGjxYWiDp_643C-41" value="&lt;div&gt;&lt;font style=&quot;font-size: 10px; color: rgb(96, 96, 96);&quot;&gt;&lt;b style=&quot;&quot;&gt;Locomotion&lt;/b&gt;&lt;/font&gt;&lt;div&gt;&lt;font style=&quot;font-size: 10px; color: rgb(96, 96, 96);&quot;&gt;&lt;b style=&quot;&quot;&gt;Controller&lt;/b&gt;&lt;/font&gt;&lt;/div&gt;&lt;/div&gt;" style="rounded=0;whiteSpace=wrap;html=1;strokeColor=#606060;" parent="1" vertex="1">
          <mxGeometry x="600" y="340.00000000000006" width="120" height="80" as="geometry" />
        </mxCell>
        <mxCell id="ELLcUYjGjxYWiDp_643C-43" value="" style="html=1;shape=mxgraph.sysml.port;sysMLPortType=flowN;rotation=90;strokeColor=#606060;" parent="1" vertex="1">
          <mxGeometry x="590" y="369.31000000000006" width="20" height="20.69" as="geometry" />
        </mxCell>
        <mxCell id="ELLcUYjGjxYWiDp_643C-46" value="" style="html=1;shape=mxgraph.sysml.port;sysMLPortType=flowN;rotation=-90;strokeColor=#606060;" parent="1" vertex="1">
          <mxGeometry x="440" y="510.6900000000001" width="20" height="20" as="geometry" />
        </mxCell>
        <mxCell id="ELLcUYjGjxYWiDp_643C-49" value="Alternate" style="text;html=1;align=center;verticalAlign=middle;whiteSpace=wrap;rounded=0;fontSize=9;" parent="1" vertex="1">
          <mxGeometry x="340" y="407.5" width="40" height="25" as="geometry" />
        </mxCell>
        <mxCell id="ELLcUYjGjxYWiDp_643C-50" value="Primary" style="text;html=1;align=center;verticalAlign=middle;whiteSpace=wrap;rounded=0;fontSize=9;" parent="1" vertex="1">
          <mxGeometry x="340" y="367.5" width="40" height="25" as="geometry" />
        </mxCell>
        <mxCell id="uhKVJ_zDEWpFfmcihKgR-4" value="&lt;font&gt;&amp;lt;&amp;lt;interface&amp;gt;&amp;gt;&lt;/font&gt;&lt;div&gt;&lt;font&gt;method: setPrimary&lt;/font&gt;&lt;/div&gt;&lt;div&gt;&lt;font&gt;datatype: locomotion::Command&lt;/font&gt;&lt;/div&gt;" style="text;html=1;align=center;verticalAlign=middle;resizable=0;points=[];autosize=1;strokeColor=none;fillColor=none;fontSize=9;fontColor=#0000FF;" parent="1" vertex="1">
          <mxGeometry x="180" y="330" width="150" height="50" as="geometry" />
        </mxCell>
        <mxCell id="nOyQm7GMKlgaKv8V2z_0-5" value="" style="endArrow=classic;html=1;rounded=0;exitX=0.5;exitY=0;exitDx=0;exitDy=0;exitPerimeter=0;entryX=0.5;entryY=1;entryDx=0;entryDy=0;entryPerimeter=0;" parent="1" source="ELLcUYjGjxYWiDp_643C-21" target="ELLcUYjGjxYWiDp_643C-43" edge="1">
          <mxGeometry width="50" height="50" relative="1" as="geometry">
            <mxPoint x="660" y="590" as="sourcePoint" />
            <mxPoint x="710" y="540" as="targetPoint" />
          </mxGeometry>
        </mxCell>
        <mxCell id="nOyQm7GMKlgaKv8V2z_0-7" value="&lt;font&gt;&amp;lt;&amp;lt;callback&amp;gt;&amp;gt;&lt;/font&gt;&lt;div&gt;&lt;font&gt;datatype: locomotion::Command&lt;/font&gt;&lt;/div&gt;" style="text;html=1;align=center;verticalAlign=middle;resizable=0;points=[];autosize=1;strokeColor=none;fillColor=none;fontSize=9;fontColor=#0000FF;" parent="1" vertex="1">
          <mxGeometry x="450" y="340" width="150" height="40" as="geometry" />
        </mxCell>
        <mxCell id="nOyQm7GMKlgaKv8V2z_0-8" value="" style="html=1;shape=mxgraph.sysml.port;sysMLPortType=flowN;rotation=-90;strokeColor=#606060;" parent="1" vertex="1">
          <mxGeometry x="320" y="510.00000000000006" width="20" height="20" as="geometry" />
        </mxCell>
        <mxCell id="nOyQm7GMKlgaKv8V2z_0-10" value="" style="endArrow=classic;html=1;rounded=0;entryX=0.5;entryY=1;entryDx=0;entryDy=0;entryPerimeter=0;exitX=0.5;exitY=0;exitDx=0;exitDy=0;exitPerimeter=0;strokeWidth=1;" parent="1" source="ELLcUYjGjxYWiDp_643C-29" target="ELLcUYjGjxYWiDp_643C-10" edge="1">
          <mxGeometry width="50" height="50" relative="1" as="geometry">
            <mxPoint x="660" y="590" as="sourcePoint" />
            <mxPoint x="710" y="540" as="targetPoint" />
            <Array as="points">
              <mxPoint x="270" y="380" />
            </Array>
          </mxGeometry>
        </mxCell>
        <mxCell id="QTAasbSB_oblZXM-6ObG-1" value="" style="endArrow=classic;html=1;rounded=0;entryX=0.5;entryY=1;entryDx=0;entryDy=0;entryPerimeter=0;exitX=0.5;exitY=0;exitDx=0;exitDy=0;exitPerimeter=0;" parent="1" source="ELLcUYjGjxYWiDp_643C-25" target="ELLcUYjGjxYWiDp_643C-46" edge="1">
          <mxGeometry width="50" height="50" relative="1" as="geometry">
            <mxPoint x="370" y="590" as="sourcePoint" />
            <mxPoint x="420" y="540" as="targetPoint" />
            <Array as="points">
              <mxPoint x="520" y="420" />
              <mxPoint x="520" y="520" />
            </Array>
          </mxGeometry>
        </mxCell>
        <mxCell id="QTAasbSB_oblZXM-6ObG-2" value="" style="endArrow=classic;html=1;rounded=0;entryX=0.5;entryY=1;entryDx=0;entryDy=0;entryPerimeter=0;exitX=0.5;exitY=0;exitDx=0;exitDy=0;exitPerimeter=0;" parent="1" source="nOyQm7GMKlgaKv8V2z_0-8" target="ELLcUYjGjxYWiDp_643C-22" edge="1">
          <mxGeometry width="50" height="50" relative="1" as="geometry">
            <mxPoint x="370" y="590" as="sourcePoint" />
            <mxPoint x="420" y="540" as="targetPoint" />
            <Array as="points">
              <mxPoint x="260" y="520" />
              <mxPoint x="260" y="420" />
            </Array>
          </mxGeometry>
        </mxCell>
        <mxCell id="QTAasbSB_oblZXM-6ObG-3" value="GNC pipeline" style="text;html=1;align=center;verticalAlign=middle;whiteSpace=wrap;rounded=0;" parent="1" vertex="1">
          <mxGeometry x="335" y="270" width="110" height="30" as="geometry" />
        </mxCell>
        <mxCell id="QTAasbSB_oblZXM-6ObG-4" value="" style="shape=flexArrow;endArrow=classic;html=1;rounded=0;fillColor=#f5f5f5;strokeColor=#666666;" parent="1" edge="1">
          <mxGeometry width="50" height="50" relative="1" as="geometry">
            <mxPoint x="305" y="300" as="sourcePoint" />
            <mxPoint x="475" y="300" as="targetPoint" />
          </mxGeometry>
        </mxCell>
      </root>
    </mxGraphModel>
  </diagram>
</mxfile>
